<svg width="1053" height="1030" viewBox="0 0 1053 1030" fill="none" xmlns="http://www.w3.org/2000/svg">
<g clip-path="url(#clip0_2_285)">
<path d="M1021 5C1033 11 1055 31.8 1047 67" stroke="#21378C" stroke-width="9" stroke-linejoin="round" stroke-dasharray="18 18"/>
</g>
<g clip-path="url(#clip1_2_285)">
<path d="M911.5 141C900.167 151 820.8 163.4 800 165" stroke="#21378C" stroke-width="9" stroke-linejoin="round" stroke-dasharray="18 18"/>
</g>
<g clip-path="url(#clip2_2_285)">
<path d="M530 208C542 196 590 167 630 167" stroke="#21378C" stroke-width="9" stroke-linejoin="round" stroke-dasharray="18 18"/>
</g>
<g clip-path="url(#clip3_2_285)">
<path d="M5.22186 892.198C11.7106 916.176 63 941 143 961" stroke="#21378C" stroke-width="9" stroke-linejoin="round" stroke-dasharray="18 18"/>
</g>
<g clip-path="url(#clip4_2_285)">
<path d="M634.5 970.5C647.899 971.182 744.951 993.702 751.743 1029.16" stroke="#21378C" stroke-width="9" stroke-linejoin="round" stroke-dasharray="18 18"/>
</g>
<defs>
<clipPath id="clip0_2_285">
<rect width="35" height="68" fill="white" transform="translate(1018)"/>
</clipPath>
<clipPath id="clip1_2_285">
<rect width="116" height="33" fill="white" transform="translate(799 137)"/>
</clipPath>
<clipPath id="clip2_2_285">
<rect width="104" height="50" fill="white" transform="translate(526 162)"/>
</clipPath>
<clipPath id="clip3_2_285">
<rect width="145" height="75" fill="white" transform="translate(0 891)"/>
</clipPath>
<clipPath id="clip4_2_285">
<rect width="123" height="64" fill="white" transform="translate(634 966)"/>
</clipPath>
</defs>
</svg>
