<svg width="266" height="262" viewBox="0 0 266 262" fill="none" xmlns="http://www.w3.org/2000/svg">
<path d="M100.436 166.084C130.07 195.755 163.696 210.206 175.672 198.369L189.952 184.071C192.869 181.15 192.869 176.231 189.952 173.31L171.987 155.323C169.07 152.402 164.157 152.402 161.239 155.323L150.491 166.084C128.534 155.63 110.723 137.951 100.436 115.966L111.184 105.205C114.101 102.284 114.101 97.3644 111.184 94.4434L93.2189 76.4564C90.3016 73.5354 85.3882 73.5354 82.4708 76.4564L68.1912 90.7538C56.2147 102.745 70.6479 136.413 100.436 166.084Z" fill="#4E6AD9"/>
<path d="M189.799 173.31L171.834 155.323C168.916 152.402 164.003 152.402 161.086 155.323L150.338 166.084C139.282 160.857 129.456 153.785 121.011 145.33L100.282 166.084C129.916 195.755 163.542 210.206 175.519 198.369L189.799 184.071C192.869 180.997 192.869 176.231 189.799 173.31Z" fill="#21378C"/>
<path d="M130.837 12.9636C64.0455 12.9636 9.84418 68.3084 9.84418 136.413C9.84418 204.518 64.0455 259.863 130.837 259.863C197.629 259.863 251.831 204.518 251.831 136.413C251.831 68.3084 197.629 12.9636 130.837 12.9636ZM130.837 242.183C72.4904 242.183 25.1986 194.833 25.1986 136.413C25.1986 77.9938 72.4904 30.6432 130.837 30.6432C189.184 30.6432 236.476 77.9938 236.476 136.413C236.476 194.833 189.184 242.183 130.837 242.183Z" fill="#D9D9D9"/>
</svg>
