<svg width="108" height="108" viewBox="0 0 108 108" fill="none" xmlns="http://www.w3.org/2000/svg">
<path d="M94.5001 49.3087C94.0525 49.3087 93.6233 49.4866 93.3068 49.803C92.9904 50.1193 92.8126 50.5486 92.8126 50.9962C92.8114 52.3405 92.3678 53.6471 91.5505 54.7145C90.7332 55.7817 89.5876 56.5506 88.29 56.9025C88.0325 53.0465 87.0175 49.2792 85.3032 45.8155C85.3032 45.8155 85.2019 45.6975 85.1682 45.63C85.0057 45.3887 84.7835 45.1936 84.5233 45.0635C84.2632 44.9334 83.9738 44.8728 83.6832 44.8875C83.2951 44.8875 82.8901 44.8875 82.485 44.8875C78.9842 44.8964 75.5657 43.8238 72.6975 41.8162L72.3432 41.5462C71.8707 41.1243 71.3644 40.7193 70.8412 40.3143L70.4869 39.9937C67.6151 37.1872 65.8228 33.4594 65.4244 29.4637C65.4244 29.4637 65.4244 29.3456 65.4244 29.2781C65.4051 29.1251 65.3595 28.9766 65.2894 28.8393C65.2458 28.7821 65.1949 28.7309 65.1376 28.6875C65.055 28.5547 64.9525 28.435 64.8337 28.3331H64.7157C64.587 28.2345 64.4452 28.1548 64.2937 28.0968C55.1913 25.0363 45.3233 25.1313 36.2812 28.3668L22.5619 18.2418C22.2762 18.0383 21.934 17.929 21.5832 17.929C21.2323 17.929 20.8902 18.0383 20.6044 18.2418C20.3178 18.4389 20.0991 18.7199 19.9781 19.0463C19.8574 19.3725 19.8403 19.728 19.9294 20.0643L24.0132 35.4375C19.4988 39.2845 16.1399 44.3081 14.3101 49.95H6.75008C6.49347 49.9437 6.2388 49.996 6.00544 50.103C5.77212 50.21 5.56624 50.3686 5.40352 50.5673C5.24079 50.7656 5.1255 50.9987 5.06642 51.2484C5.00734 51.4984 5.00603 51.7583 5.06258 52.0087L8.20133 66.3862C8.28366 66.77 8.49721 67.1132 8.80521 67.3564C9.11322 67.5996 9.49641 67.7281 9.88883 67.7193H14.2932C17.0923 75.9577 22.9534 82.8036 30.6619 86.8387V98.9887C30.6619 99.4362 30.8397 99.8655 31.1561 100.182C31.4728 100.498 31.9018 100.676 32.3494 100.676H39.285C39.6409 100.676 39.9876 100.563 40.2756 100.354C40.5634 100.145 40.7779 99.8502 40.8882 99.5118L43.5712 91.2768C48.2465 92.0642 53.0205 92.0642 57.6957 91.2768L60.3619 99.5625C60.4722 99.9008 60.6868 100.196 60.9747 100.405C61.2625 100.614 61.6093 100.727 61.965 100.727H68.9007C69.3481 100.727 69.7774 100.549 70.0938 100.233C70.4104 99.9162 70.5882 99.4869 70.5882 99.0393V86.8893C81.0001 81.135 87.75 71.1787 88.3069 60.3787C90.515 59.9932 92.5162 58.8407 93.958 57.1244C95.3997 55.4078 96.1892 53.2377 96.1876 50.9962C96.1876 50.5486 96.0099 50.1193 95.6932 49.803C95.3769 49.4866 94.9476 49.3087 94.5001 49.3087Z" fill="#4E6AD9"/>
<path d="M82.4513 7.32379C78.3993 7.32379 74.4387 8.52529 71.0697 10.7763C67.7006 13.0274 65.0748 16.2269 63.5244 19.9702C61.9737 23.7136 61.568 27.8327 62.3585 31.8066C63.1491 35.7808 65.1002 39.4309 67.9652 42.296C70.8302 45.1611 74.4806 47.1122 78.4545 47.9028C82.4284 48.6931 86.5477 48.2874 90.291 46.7369C94.0343 45.1863 97.2339 42.5606 99.4848 39.1915C101.736 35.8226 102.937 31.8618 102.937 27.81C102.929 22.3794 100.767 17.1738 96.9272 13.3339C93.0873 9.49395 87.8817 7.33271 82.4513 7.32379Z" fill="#FFC20E"/>
<path d="M29.5651 43.6725C28.6658 43.6692 27.7858 43.933 27.0368 44.4306C26.2876 44.928 25.7032 45.6367 25.3575 46.467C25.0119 47.2971 24.9206 48.2112 25.0952 49.0935C25.2697 49.9755 25.7024 50.7859 26.3384 51.4216C26.9743 52.0576 27.7847 52.4902 28.6667 52.6648C29.5489 52.8395 30.4631 52.7482 31.2931 52.4025C32.1232 52.0569 32.8321 51.4724 33.3296 50.7234C33.827 49.9743 34.0908 49.0942 34.0876 48.195C34.0876 46.9956 33.611 45.8454 32.7629 44.9972C31.9148 44.149 30.7644 43.6725 29.5651 43.6725Z" fill="#466089"/>
<path d="M54.1686 33.75C53.9467 33.7267 53.7226 33.7476 53.5088 33.8116C53.2953 33.8754 53.0965 33.9811 52.9238 34.1222C52.7511 34.2635 52.6083 34.4375 52.5033 34.6345C52.3983 34.8312 52.3335 35.0468 52.3125 35.2687C52.2892 35.4906 52.31 35.7148 52.3738 35.9285C52.4378 36.1422 52.5435 36.3411 52.6845 36.5138C52.8257 36.6862 52.9999 36.8292 53.1966 36.9341C53.3935 37.0391 53.6091 37.1039 53.8311 37.125C65.9305 38.323 75.6675 46.423 76.9836 56.3962C77.0371 56.8048 77.2383 57.1797 77.5491 57.4501C77.86 57.7206 78.2591 57.868 78.6711 57.8644H78.8905C79.3333 57.8056 79.7347 57.5735 80.0066 57.2194C80.2788 56.865 80.3991 56.4173 80.3418 55.9744C78.8061 44.4994 67.8036 35.1675 54.1686 33.75Z" fill="#466089"/>
<path d="M83.8689 26.1225H81.0002C80.4881 26.1362 79.9917 25.947 79.6187 25.5962C79.2457 25.2454 79.0265 24.7612 79.0089 24.2495C79.0098 24.005 79.0611 23.7635 79.16 23.5397C79.2587 23.3162 79.4026 23.1155 79.5827 22.95C79.9657 22.5886 80.4735 22.3892 81.0002 22.3931H86.3832C86.8308 22.3931 87.2601 22.2155 87.5765 21.899C87.8929 21.5825 88.0707 21.1533 88.0707 20.7056C88.0707 20.2581 87.8929 19.829 87.5765 19.5124C87.2601 19.196 86.8308 19.0181 86.3832 19.0181H84.1389V16.6388C84.1389 16.1912 83.9611 15.7621 83.6447 15.4457C83.3283 15.1291 82.899 14.9513 82.4514 14.9513C82.0039 14.9513 81.5746 15.1291 81.2581 15.4457C80.9416 15.7621 80.7639 16.1912 80.7639 16.6388V19.035C79.4571 19.0865 78.2145 19.6147 77.2708 20.52C76.7693 21.0042 76.3693 21.5831 76.0941 22.2236C75.8189 22.8638 75.6739 23.5525 75.6677 24.2495C75.6853 25.6505 76.2556 26.9876 77.2543 27.9704C78.2528 28.9532 79.5991 29.5021 81.0002 29.4975H83.8689C84.3808 29.484 84.8774 29.6732 85.2503 30.024C85.6233 30.3748 85.8425 30.8591 85.8602 31.3706C85.8584 31.6135 85.8085 31.8534 85.7129 32.0765C85.6172 32.2998 85.478 32.5014 85.3033 32.67C84.9148 33.0359 84.4024 33.2408 83.8689 33.2438H78.4858C78.0383 33.2438 77.609 33.4216 77.2926 33.738C76.9759 34.0546 76.7983 34.4837 76.7983 34.9313C76.7983 35.379 76.9759 35.8082 77.2926 36.1247C77.609 36.4411 78.0383 36.6188 78.4858 36.6188H80.7639V38.9813C80.7639 39.429 80.9416 39.8581 81.2581 40.1747C81.5746 40.4911 82.0039 40.6688 82.4514 40.6688C82.899 40.6688 83.3283 40.4911 83.6447 40.1747C83.9611 39.8581 84.1389 39.429 84.1389 38.9813V36.585C85.4498 36.5302 86.6965 36.0027 87.6489 35.1C88.4023 34.3665 88.9173 33.4226 89.1262 32.3919C89.3352 31.3613 89.2288 30.2915 88.8206 29.3222C88.4125 28.3529 87.7218 27.5292 86.8384 26.9583C85.9552 26.3876 84.9202 26.0964 83.8689 26.1225Z" fill="#466089"/>
</svg>
