<svg width="407" height="407" viewBox="0 0 407 407" fill="none" xmlns="http://www.w3.org/2000/svg">
<g clip-path="url(#clip0_1_196)">
<path d="M186.5 14C92.9448 14 17 87.0325 17 177C17 266.968 92.9448 340 186.5 340C280.055 340 356 266.968 356 177C356 87.0325 280.055 14 186.5 14ZM186.5 320.101C104.832 320.101 38.7929 256.171 38.7929 177.212C38.7929 98.2519 105.052 34.3221 186.5 34.3221C267.948 34.3221 334.207 98.2519 334.207 177.212C334.207 256.171 268.168 320.101 186.5 320.101Z" fill="#FFE300"/>
<path d="M380.242 311.466C381.056 309.431 380.649 304.343 380.038 302.104C379.631 300.68 379.428 298.441 379.428 296.406C379.428 295.796 379.428 293.965 378.817 293.151C377.8 291.523 376.782 289.691 376.172 288.877C375.154 287.656 373.73 286.435 373.526 285.621C373.323 284.603 374.951 282.975 377.596 283.179C380.038 283.382 382.073 285.418 383.091 287.046C383.701 287.86 384.515 289.08 385.533 290.301L385.736 290.098C385.94 288.47 386.347 286.231 387.161 283.789C388.789 279.719 393.876 281.754 393.876 284.603C395.911 282.161 399.981 285.01 398.964 287.859C400.999 286.028 404.662 288.266 403.848 291.319C406.493 290.708 408.121 293.558 406.29 296.61C404.865 299.256 401.609 306.378 400.592 309.023C399.574 311.669 395.504 315.535 394.894 317.367C394.283 320.012 392.655 322.658 385.533 320.826C378.817 318.995 379.631 314.111 380.242 311.466Z" fill="#FBBEAA"/>
<path d="M385.736 290.301C385.736 290.098 385.94 290.098 386.143 290.301C386.143 290.301 386.347 290.505 386.754 290.708C387.161 290.912 387.568 291.115 388.178 291.522C388.585 291.726 389.196 292.133 389.806 292.54L392.859 285.824C392.859 285.824 392.859 285.824 393.062 285.824C393.062 285.824 393.062 285.824 393.062 286.028L390.824 293.15C391.434 293.557 391.841 293.964 392.452 294.575C392.655 294.778 392.655 294.778 392.655 294.982H392.859L393.266 295.185C393.469 295.185 393.469 295.185 393.673 295.185C393.876 295.185 393.876 295.185 394.08 295.185C394.283 295.185 394.283 295.185 394.487 295.185C394.69 295.185 394.69 295.185 394.894 295.185L398.557 289.284C398.557 289.284 398.557 289.284 398.76 289.284C398.76 289.284 398.76 289.284 398.76 289.487L395.911 295.796C395.911 295.999 395.911 295.999 396.115 296.203C396.115 296.203 396.115 296.406 396.318 296.406L396.522 296.61L396.725 296.813L396.929 297.017L397.132 297.22L397.336 297.424C397.336 297.424 397.539 297.424 397.539 297.627H397.743C397.946 297.627 398.15 297.627 398.353 297.831C398.557 297.831 398.76 297.831 398.964 297.831C399.167 297.831 399.167 297.831 399.371 297.831L403.237 293.15C403.237 293.15 403.237 293.15 403.441 293.15C403.441 293.15 403.441 293.15 403.441 293.354L400.388 298.645V299.052C400.388 299.255 400.388 299.459 400.592 299.662C400.592 299.866 400.795 299.866 400.795 300.069C400.795 300.273 400.999 300.273 401.202 300.476C401.202 300.476 401.406 300.476 401.406 300.68L401.609 300.883C401.813 300.883 402.016 301.087 402.016 301.087H402.627H403.237C403.441 301.087 403.441 301.087 403.441 301.29C403.441 301.494 403.441 301.697 403.237 301.697L402.627 301.901C402.423 301.901 402.22 301.901 401.813 301.901C401.609 301.901 401.406 301.901 400.999 301.697L400.592 301.494C400.388 301.494 400.388 301.29 400.185 301.29C399.981 301.087 399.778 300.883 399.574 300.68C399.371 300.476 399.371 300.273 399.167 300.069C399.167 299.866 398.964 299.662 398.964 299.255H398.76C398.557 299.255 398.15 299.255 397.946 299.255C397.743 299.255 397.336 299.255 397.132 299.052L396.725 298.848C396.522 298.848 396.522 298.848 396.318 298.645L395.911 298.441C395.708 298.441 395.708 298.238 395.504 298.238L395.097 297.831C395.097 297.831 394.894 297.627 394.894 297.424L394.69 297.017C394.69 296.813 394.487 296.813 394.487 296.61V296.406C394.283 296.406 394.283 296.406 394.08 296.406C393.876 296.406 393.673 296.406 393.673 296.406C393.469 296.406 393.469 296.406 393.266 296.406C393.469 296.61 393.673 297.017 393.673 297.22C393.876 297.627 394.08 298.034 394.08 298.441C394.08 298.848 394.283 299.255 394.283 299.662C394.283 300.069 394.283 300.273 394.283 300.68C394.283 300.883 394.283 301.29 394.283 301.494C394.283 301.901 394.283 302.104 394.283 302.104C394.283 302.308 394.08 302.308 394.08 302.308C393.876 302.308 393.876 302.104 393.673 302.104C393.673 302.104 393.673 301.901 393.673 301.494C393.673 301.29 393.673 301.087 393.673 300.883C393.673 300.68 393.469 300.273 393.469 300.069C393.469 299.662 393.266 299.459 393.266 299.052C393.266 298.645 393.062 298.441 392.859 298.034C392.655 297.627 392.452 297.424 392.248 297.017C392.045 296.61 391.841 296.406 391.434 295.999C390.824 295.389 390.213 294.778 389.603 294.371C388.992 293.964 388.382 293.557 387.771 293.15C387.161 292.743 386.754 292.54 386.347 292.133C385.94 291.929 385.94 291.726 385.94 291.726C385.736 290.505 385.736 290.505 385.736 290.301Z" fill="#F18380"/>
<path d="M379.021 312.89L349.92 353.387C345.24 359.695 344.426 367.021 351.955 371.702C356.432 374.754 364.165 374.754 369.049 367.632L393.876 320.013C397.336 314.722 396.522 309.838 392.452 307.396C387.568 304.343 383.498 306.175 379.021 312.89Z" fill="#FBBEAA"/>
<path d="M325.093 299.866C323.058 293.761 326.314 287.249 332.419 285.214C338.524 283.179 345.036 286.435 347.071 292.54L369.253 358.474C371.288 364.579 368.032 371.091 361.927 373.126C355.822 375.161 349.31 371.905 347.275 365.8L325.093 299.866Z" fill="#FBBEAA"/>
<path d="M357.695 324.479L335.893 331.789L338.286 338.928L360.088 331.617L357.695 324.479Z" fill="#F18380"/>
<path d="M335.268 333.24L324.076 300.069C321.837 293.557 325.5 286.435 332.012 284.196C338.524 281.958 345.647 285.621 347.885 292.133L359.078 325.303L335.268 333.24Z" fill="#21378C"/>
<path d="M358.716 320.976L332.859 329.642L334.993 336.01L360.85 327.344L358.716 320.976Z" fill="#4E6AD9"/>
<path d="M326.925 257.945H302.505V286.842H326.925V257.945Z" fill="#FBBEAA"/>
<path d="M302.505 257.945H326.925V274.021C325.907 274.225 324.89 274.225 323.669 274.225C315.325 274.225 305.761 271.986 302.301 263.846V257.945H302.505Z" fill="#F18380"/>
<path d="M327.128 276.26C327.128 276.26 341.17 284.4 343.408 285.824C345.647 287.249 348.089 289.487 347.682 295.389C347.275 301.29 345.24 379.435 345.24 379.435C339.338 382.284 333.64 384.522 331.402 384.929C328.96 385.132 327.128 385.336 325.704 383.708C324.076 382.08 319.395 376.586 319.395 376.586C319.395 376.586 311.662 381.877 308.203 383.708C306.371 384.726 304.743 385.336 302.505 384.929C297.417 383.911 277.474 378.01 276.864 377.806C276.253 377.399 275.643 376.993 275.643 376.382C275.643 375.771 276.05 296.406 276.253 292.743C276.457 289.08 278.085 285.621 282.358 283.789C286.632 281.958 302.505 275.446 302.505 275.446L319.192 287.046L327.128 276.26Z" fill="#2943AC"/>
<path d="M318.785 286.435L319.192 286.842L319.599 286.435V376.992L319.395 376.789C319.192 376.585 319.192 376.585 319.192 376.585C319.192 376.585 318.988 376.585 318.785 376.789V286.435Z" fill="#192A6B"/>
<path d="M327.128 274.021L319.395 286.842C319.395 286.842 327.128 292.947 327.535 293.354C327.942 293.761 328.96 293.761 328.96 292.947C329.163 292.336 331.402 278.702 331.402 278.702C331.402 278.498 331.402 278.295 331.402 278.295C330.995 278.091 327.128 274.021 327.128 274.021Z" fill="#4E6AD9"/>
<path d="M302.505 271.579L319.395 286.638C319.395 286.638 310.441 292.743 310.238 293.15C309.831 293.557 309.017 293.557 308.813 292.743C308.203 291.726 297.824 277.074 297.621 276.87C297.621 276.667 297.621 276.463 297.621 276.463C297.621 276.667 302.505 271.579 302.505 271.579Z" fill="#4E6AD9"/>
<path d="M339.745 236.578C339.542 244.921 339.745 251.433 338.321 257.742C336.896 264.05 332.216 269.341 322.041 269.341C311.866 269.341 300.266 266.085 299.452 253.265C297.824 251.433 294.975 244.921 294.975 237.799C294.975 230.676 295.382 215.21 311.866 212.972C328.349 210.53 340.152 216.635 339.745 236.578Z" fill="#FBBEAA"/>
<path d="M331.198 243.09C331.198 244.311 331.809 245.125 332.623 245.125C333.437 245.125 334.047 244.107 334.047 243.09C334.047 241.869 333.437 241.055 332.623 241.055C331.809 241.055 331.198 241.869 331.198 243.09Z" fill="#403D4F"/>
<path d="M312.883 243.09C312.883 244.311 313.494 245.125 314.308 245.125C315.122 245.125 315.732 244.107 315.732 243.09C315.732 241.869 315.122 241.055 314.308 241.055C313.494 241.055 312.883 241.869 312.883 243.09Z" fill="#403D4F"/>
<path d="M316.546 236.781C316.343 236.984 315.325 236.781 314.511 236.781C313.494 236.781 312.069 236.781 312.069 236.577C312.069 236.374 312.883 235.153 314.918 235.356C316.343 235.356 316.75 236.374 316.546 236.781Z" fill="#403D4F"/>
<path d="M330.791 236.781C330.995 236.984 331.809 236.781 332.623 236.781C333.437 236.781 334.658 236.781 334.658 236.577C334.658 236.374 334.047 235.153 332.216 235.356C330.995 235.356 330.588 236.374 330.791 236.781Z" fill="#403D4F"/>
<path d="M324.89 251.433C326.314 251.433 327.535 250.416 327.535 249.805L327.128 244.107C327.128 243.904 326.721 243.7 326.518 243.7C326.314 243.7 325.907 243.904 326.111 244.311L326.518 249.805C326.314 250.009 325.704 250.416 324.89 250.416C324.483 250.416 324.279 250.619 324.279 251.026C324.076 251.23 324.279 251.433 324.89 251.433C324.686 251.433 324.686 251.433 324.89 251.433Z" fill="#F18380"/>
<path d="M323.669 255.503C325.297 255.707 328.349 256.521 328.349 257.335C328.349 258.149 327.739 262.626 323.058 262.626C316.75 262.626 316.75 257.742 317.157 256.724C317.157 255.707 320.413 255.3 323.669 255.503Z" fill="#73102A"/>
<path d="M316.75 258.352C321.227 256.928 324.89 258.963 326.314 261.405C325.5 262.219 324.483 262.626 322.855 262.626C318.378 262.626 317.157 260.184 316.75 258.352Z" fill="#D65155"/>
<path d="M317.157 256.317C317.971 255.503 320.82 255.3 323.669 255.503C325.297 255.707 328.146 256.521 328.349 257.335C326.111 257.742 321.43 257.945 317.157 256.317Z" fill="white"/>
<path d="M309.627 229.251C309.627 234.339 307.592 236.374 306.168 237.391C304.743 238.409 303.522 239.223 303.522 241.054C303.522 242.886 303.522 246.549 303.522 247.159C303.522 247.77 303.115 248.38 302.505 248.177C301.894 247.973 300.063 246.956 300.063 245.938L293.958 241.665C293.958 241.665 291.719 237.391 292.33 229.658C292.94 221.925 298.842 218.059 298.842 218.059C299.045 213.785 302.912 206.053 311.459 203C311.866 205.239 311.459 207.68 311.459 207.68C315.325 204.221 328.349 203 333.233 204.628C332.623 206.663 330.384 208.698 330.384 208.698C334.861 209.308 343.001 213.785 346.664 219.076C345.24 221.315 341.984 223.146 341.984 223.146C343.612 224.774 345.443 229.455 345.647 233.118C340.966 233.118 334.454 230.269 334.454 230.269C334.454 230.269 334.861 233.118 334.251 235.56C330.181 235.357 322.448 231.083 320.413 227.827C320.82 229.658 320.413 234.542 320.006 235.967C316.139 235.763 311.459 231.897 309.627 229.251Z" fill="#403D4F"/>
<path d="M299.859 246.956C299.859 244.718 299.452 241.258 296.196 241.055C292.94 241.055 292.533 243.497 292.533 247.363C292.737 251.23 296.603 254.689 300.063 253.265L299.859 246.956Z" fill="#FBBEAA"/>
<path d="M294.975 249.805C295.382 249.805 295.586 249.398 295.586 249.194C295.586 248.991 295.586 248.787 295.993 248.584C296.4 248.38 296.807 248.38 297.417 248.584C297.621 248.787 297.824 248.787 298.028 248.584C298.231 248.38 298.231 248.177 298.231 247.973C298.028 244.717 295.789 244.107 295.789 244.107C295.586 244.107 295.179 244.107 295.179 244.514C295.179 244.717 295.179 245.124 295.586 245.124C295.586 245.124 296.603 245.531 297.214 247.159C296.603 247.159 295.993 247.159 295.586 247.566C294.975 247.973 294.772 248.584 294.772 249.194C294.568 249.601 294.772 249.805 294.975 249.805Z" fill="#F18380"/>
<path d="M275.643 292.133C277.881 286.232 284.393 283.179 290.498 285.214C296.4 287.452 299.452 293.965 297.417 300.069L273.404 365.393C271.166 371.295 264.654 374.347 258.549 372.312C252.647 370.074 249.595 363.562 251.63 357.456L275.643 292.133Z" fill="#FBBEAA"/>
<path d="M264.019 323.897L261.426 330.966L283.014 338.885L285.607 331.817L264.019 323.897Z" fill="#F18380"/>
<path d="M262.619 324.693L274.625 291.929C277.067 285.417 284.19 281.958 290.702 284.4C297.214 286.842 300.47 293.964 298.231 300.476L286.225 333.24L262.619 324.693Z" fill="#2943AC"/>
<path d="M263.181 320.403L260.867 326.708L286.467 336.105L288.781 329.8L263.181 320.403Z" fill="#4E6AD9"/>
<path d="M308.61 329.984C310.238 328.559 312.68 324.082 313.29 322.047C313.697 320.623 314.715 318.588 315.732 316.756C316.139 316.349 316.953 314.722 316.953 313.501C317.157 311.466 317.157 309.634 316.953 308.413C316.75 306.785 316.139 304.954 316.546 304.343C316.953 303.529 319.192 302.715 321.43 304.343C323.465 305.768 324.076 308.617 324.076 310.448C324.076 311.466 324.076 312.89 324.483 314.518H324.686C325.704 313.094 327.332 311.465 329.163 310.041C332.623 307.395 336.082 311.872 334.454 314.314C337.507 313.297 339.338 317.977 337.1 319.809C339.745 319.402 341.577 323.065 339.338 325.303C341.984 326.117 341.984 329.373 338.728 331.001C336.286 332.426 329.57 336.903 327.332 338.734C325.093 340.362 319.599 341.583 318.174 342.804C316.139 344.839 313.494 346.06 308.406 340.769C303.319 335.478 306.575 331.815 308.61 329.984Z" fill="#FBBEAA"/>
<path d="M306.778 330.391L260.787 349.52C253.461 352.369 248.984 358.27 252.851 366.207C255.089 371.091 261.601 375.161 269.538 371.701L315.732 344.432C321.43 341.787 323.262 337.31 321.227 333.036C318.378 327.745 314.104 327.135 306.778 330.391Z" fill="#FBBEAA"/>
</g>
<defs>
<clipPath id="clip0_1_196">
<rect width="407" height="407" fill="white"/>
</clipPath>
</defs>
</svg>
